<svg xmlns="http://www.w3.org/2000/svg" width="30" height="40" fill="none">
  
  <path d="M20.429 26.8c.33-1.78.53-3.527.607-5.262h3.8c-1.478 1.453-2.988 3.295-4.407 5.262zM5.225 18.462c3.592-3.532 7.393-9.386 9.556-13.66 1.924 4.974 2.986 9.35 3.186 13.66H5.225zm9.554 16.732c-2.166-4.274-5.963-10.126-9.555-13.656h12.74c-.208 4.293-1.271 8.669-3.185 13.656zm10.055-16.732h-3.796a37.558 37.558 0 00-.592-5.237c1.414 1.959 2.918 3.791 4.388 5.237zM16.572.006L13.489 0c-.04.971-2.247 5.483-5.61 10.338C3.747 16.298.904 18.462 0 18.462v3.075c3.301 0 13.38 15.8 13.489 18.458l3.083.005c.04-.972 2.244-5.482 5.61-10.338 4.13-5.961 6.973-8.125 7.878-8.125v-3.075c-3.3 0-13.38-15.8-13.488-18.456z" fill="#DE351F"/>
</svg>
